<?xml version="1.0" encoding="UTF-8"?>
<svg version="1.1" xmlns="http://www.w3.org/2000/svg" width="600" height="600">
<path d="M0 0 C198 0 396 0 600 0 C600 198 600 396 600 600 C402 600 204 600 0 600 C0 402 0 204 0 0 Z " fill="#FEFEFE" transform="translate(0,0)"/>
<path d="M0 0 C1.60737474 1.32946415 3.21182012 2.66248275 4.8125 4 C5.42867187 4.48082031 6.04484375 4.96164063 6.6796875 5.45703125 C25.31027218 20.35291347 36.79587836 45.75700195 39.8125 69 C40.48248115 78.14744499 40.36928054 87.33049958 40.33539867 96.49706912 C40.32623641 100.17409021 40.34037258 103.85103951 40.35131836 107.52804565 C40.36899168 114.70726789 40.36531367 121.88632169 40.3536678 129.06555019 C40.34458788 134.90783071 40.34342904 140.75006444 40.34776306 146.59235001 C40.34837599 147.42784655 40.34898893 148.26334309 40.34962043 149.1241577 C40.3508995 150.82214348 40.35219636 152.52012924 40.3535108 154.21811499 C40.36488419 170.09555841 40.35185472 185.97290908 40.33030933 201.85033728 C40.31244789 215.43266062 40.31554089 229.01484711 40.33398438 242.59716797 C40.35546001 258.41956076 40.36377897 274.24187244 40.35153532 290.06427777 C40.35026131 291.75619132 40.34900382 293.44810489 40.34776306 295.14001846 C40.34683741 296.38826671 40.34683741 296.38826671 40.34589306 297.6617321 C40.34245967 303.48651244 40.34822488 309.31124075 40.35768127 315.13601303 C40.36897768 322.24968287 40.36570287 329.36317651 40.3445583 336.47682653 C40.33414839 340.09665406 40.32975039 343.71618938 40.34315491 347.33601379 C40.47279473 385.51405379 40.47279473 385.51405379 32 402.5 C31.65090576 403.23516846 31.30181152 403.97033691 30.94213867 404.7277832 C29.92660241 406.83381581 28.87663537 408.91820034 27.8125 411 C27.27882813 412.07636719 26.74515625 413.15273438 26.1953125 414.26171875 C15.20255435 434.74325072 -2.61881814 448.19324324 -23.1875 458 C-24.10273438 458.44214844 -25.01796875 458.88429688 -25.9609375 459.33984375 C-33.04272004 462.45723972 -40.60685006 463.67759773 -48.1875 465 C-49.11547771 465.17461352 -50.04345543 465.34922705 -50.99955368 465.52913189 C-54.2837777 466.01422047 -57.39137573 466.13452424 -60.71026611 466.14717102 C-62.00510925 466.15432632 -63.29995239 466.16148163 -64.6340332 466.16885376 C-66.05712866 466.17169363 -67.48022439 466.17440541 -68.90332031 466.17700195 C-70.41192784 466.18327332 -71.92053384 466.18992071 -73.42913818 466.19691467 C-78.37462299 466.21789257 -83.32010785 466.22831711 -88.265625 466.23828125 C-89.97583786 466.24233235 -91.68605057 466.24644938 -93.39626312 466.25063133 C-101.44055611 466.26967604 -109.48484002 466.28390374 -117.5291512 466.2922433 C-126.77270245 466.30198729 -136.01601243 466.32823523 -145.25947881 466.36874419 C-152.42925045 466.39907098 -159.59895364 466.41372809 -166.7687881 466.41702431 C-171.03836343 466.41935765 -175.30768088 466.42808987 -179.57718658 466.45348549 C-211.37142463 466.6327271 -241.53567567 463.30641967 -265.74609375 440.43359375 C-266.45958984 439.72396484 -266.45958984 439.72396484 -267.1875 439 C-265.77461032 435.79792338 -264.06081231 433.68236231 -261.625 431.1875 C-243.84567365 411.44342925 -235.81366497 383.84194364 -236.796875 357.60546875 C-237.31663085 349.87327805 -239.11359133 342.44385076 -241.1875 335 C-241.47625 333.92234375 -241.765 332.8446875 -242.0625 331.734375 C-249.37818298 307.30521933 -267.11570088 286.41538701 -289.1875 274 C-293.16211573 271.94719007 -297.16567694 269.95851805 -301.1875 268 C-301.290179 260.4968658 -301.35949321 252.99391723 -301.40722656 245.49023438 C-301.42715699 242.94556916 -301.45431128 240.40094861 -301.48925781 237.85644531 C-301.93042408 204.87277889 -294.69743494 177.69271651 -272.1875 153 C-271.31351562 152.00226563 -271.31351562 152.00226563 -270.421875 150.984375 C-258.36321217 137.95127477 -240.23371969 128.42588223 -223.1875 124 C-222.52766113 123.82412354 -221.86782227 123.64824707 -221.18798828 123.46704102 C-213.83118119 121.73235249 -206.50683683 121.66151138 -198.99316406 121.68432617 C-196.82305517 121.68748464 -194.65431631 121.66395513 -192.484375 121.63867188 C-191.06510584 121.63639757 -189.64583311 121.635696 -188.2265625 121.63671875 C-186.34251709 121.63224731 -186.34251709 121.63224731 -184.42041016 121.62768555 C-178.86167998 121.88572279 -173.52751065 123.53303636 -168.1875 125 C-168.2074855 124.00546059 -168.2074855 124.00546059 -168.22787476 122.99082947 C-168.36269092 115.96422136 -168.4519512 108.9379915 -168.51708984 101.91040039 C-168.54689435 99.30282627 -168.58755258 96.69534899 -168.64013672 94.08813477 C-169.10631037 70.34527071 -166.18766153 49.72326519 -154.1875 29 C-153.64480469 28.02160156 -153.10210937 27.04320312 -152.54296875 26.03515625 C-138.70442881 2.56687806 -114.49689946 -12.59997484 -88.82421875 -19.96484375 C-57.88014915 -27.43410193 -24.82270336 -19.59101251 0 0 Z " fill="#4285F3" transform="translate(530.1875,52)"/>
<path d="M0 0 C1.15757812 0.38414062 2.31515625 0.76828125 3.5078125 1.1640625 C4.33023438 1.43992187 5.15265625 1.71578125 6 2 C6 2.99 6 3.98 6 5 C6.763125 5.20625 7.52625 5.4125 8.3125 5.625 C32.85704454 14.77720305 51.84409925 35.7066015 62.65625 59.07348633 C73.48388062 84.19084323 74.19570898 113.06209385 64.31469727 138.59204102 C59.05877627 151.22033549 52.21731577 162.18184249 42.75 172.109375 C40.93886553 173.88945644 40.93886553 173.88945644 40 176 C39.26523437 176.28617188 38.53046875 176.57234375 37.7734375 176.8671875 C34.5487283 178.18432224 32.33795732 179.9439951 29.625 182.125 C18.94069396 190.31321971 6.64889523 196.65742202 -6.375 200.125 C-8.21191406 200.62386719 -8.21191406 200.62386719 -10.0859375 201.1328125 C-38.07253751 207.81761182 -65.72508651 201.38379202 -90 187 C-90.66 186.34 -91.32 185.68 -92 185 C-95.15493259 185.34087256 -96.80282742 186.43126188 -98.99768066 188.65037537 C-99.561147 189.21260803 -100.12461334 189.7748407 -100.70515442 190.35411072 C-101.31098862 190.97387283 -101.91682281 191.59363495 -102.54101562 192.23217773 C-103.18866379 192.8826004 -103.83631195 193.53302307 -104.50358582 194.20315552 C-106.64470788 196.3565715 -108.77523204 198.52018243 -110.90625 200.68359375 C-112.39230658 202.18032506 -113.87917507 203.67625065 -115.36682129 205.17140198 C-119.28424333 209.11162926 -123.19345524 213.05989012 -127.10015869 217.01074219 C-133.35209899 223.33280394 -139.61143644 229.64746103 -145.88005066 235.95298958 C-148.06924148 238.15889808 -150.25190598 240.37112225 -152.4342041 242.58384705 C-153.77553289 243.93563659 -155.11711282 245.28717698 -156.45898438 246.63842773 C-157.36773567 247.56503456 -157.36773567 247.56503456 -158.29484558 248.51036072 C-158.85831192 249.07541321 -159.42177826 249.6404657 -160.00231934 250.22264099 C-160.73011723 250.95904894 -160.73011723 250.95904894 -161.4726181 251.71033382 C-165.5675426 255.16794035 -169.34965218 255.43785639 -174.54296875 255.30859375 C-181.84197955 254.39186584 -187.4363166 247.05988019 -191.9375 241.6875 C-193.57565996 237.54391892 -193.83563934 233.37559183 -193 229 C-190.07016003 224.04751733 -186.47364888 220.1986922 -182.39550781 216.16845703 C-181.74143448 215.51409164 -181.08736115 214.85972626 -180.41346741 214.18553162 C-178.26472969 212.0381798 -176.10900989 209.8979866 -173.953125 207.7578125 C-172.45624873 206.26466898 -170.95981536 204.77108134 -169.46380615 203.27706909 C-165.53584253 199.35672125 -161.60190868 195.44241831 -157.66668701 191.52935791 C-153.64785519 187.53102878 -149.63471839 183.5269925 -145.62109375 179.5234375 C-137.75294869 171.6767061 -129.87848253 163.83635109 -122 156 C-123.57375805 151.98498115 -125.39545613 148.17634231 -127.3125 144.3125 C-134.45370967 129.45586605 -137.18370509 114.32063025 -137.25 97.9375 C-137.270625 96.69033203 -137.29125 95.44316406 -137.3125 94.15820312 C-137.41672692 69.10465664 -126.52966658 46.38237877 -110 28 C-109.31550781 27.23300781 -108.63101563 26.46601563 -107.92578125 25.67578125 C-80.61263383 -3.25293127 -37.29025681 -12.79187604 0 0 Z " fill="#FABC04" transform="translate(223,315)"/>
<path d="M0 0 C2.17010889 0.00315847 4.33884775 -0.02037104 6.50878906 -0.0456543 C7.92805822 -0.04792861 9.34733095 -0.04863017 10.76660156 -0.04760742 C12.65064697 -0.05207886 12.65064697 -0.05207886 14.57275391 -0.05664062 C20.07799998 0.42758479 25.44417098 1.97530056 30.80566406 3.31567383 C30.80566406 115.84567383 30.80566406 228.37567383 30.80566406 344.31567383 C-6.50347846 344.31567383 -41.16299252 344.2005059 -68.19433594 317.31567383 C-66.78144625 314.11359721 -65.06764825 311.99803614 -62.63183594 309.50317383 C-44.85250958 289.75910308 -36.82050091 262.15761747 -37.80371094 235.92114258 C-38.32346679 228.18895188 -40.12042727 220.75952459 -42.19433594 213.31567383 C-42.48308594 212.23801758 -42.77183594 211.16036133 -43.06933594 210.05004883 C-50.38501892 185.62089316 -68.12253681 164.73106084 -90.19433594 152.31567383 C-94.16895167 150.2628639 -98.17251288 148.27419188 -102.19433594 146.31567383 C-102.29701494 138.81253963 -102.36632915 131.30959105 -102.4140625 123.8059082 C-102.43399292 121.26124299 -102.46114722 118.71662244 -102.49609375 116.17211914 C-102.93726002 83.18845272 -95.70427087 56.00839033 -73.19433594 31.31567383 C-72.61167969 30.65051758 -72.02902344 29.98536133 -71.42871094 29.30004883 C-59.3700481 16.26694859 -41.24055563 6.74155606 -24.19433594 2.31567383 C-23.20457764 2.05185913 -23.20457764 2.05185913 -22.19482422 1.78271484 C-14.83801713 0.04802632 -7.51367276 -0.0228148 0 0 Z " fill="#34A753" transform="translate(331.1943359375,173.684326171875)"/>
<path d="M0 0 C7.12494255 1.18749043 12.57053506 3.82624326 19 7 C19.95777344 7.46664062 20.91554688 7.93328125 21.90234375 8.4140625 C46.57526515 21.08681122 63.70448931 44.90668933 72.2109375 70.86328125 C74.32338243 79.26077272 75.2938014 87.30831575 75.24723816 95.95889282 C75.24965257 97.00480823 75.25206699 98.05072364 75.25455457 99.12833345 C75.26015071 102.60205969 75.25155969 106.07559868 75.24291992 109.54931641 C75.24399376 112.05174814 75.24593394 114.55417964 75.24867249 117.05661011 C75.25300445 123.12681226 75.24810375 129.19694216 75.23882218 135.26713343 C75.22840319 142.33657841 75.22850924 149.40601175 75.22899476 156.47546296 C75.22949433 169.08212357 75.22035908 181.68875872 75.20581055 194.29541016 C75.19169519 206.53304508 75.18464113 218.77065761 75.18530273 231.00830078 C75.18536267 232.14116305 75.18536267 232.14116305 75.18542381 233.29691143 C75.18546417 234.05084318 75.18550452 234.80477493 75.1855461 235.5815531 C75.186235 249.51986784 75.18035522 263.45817308 75.17139288 277.39648474 C75.16837288 282.32789794 75.16731293 287.2593094 75.16686058 292.19072342 C75.16610922 298.81454232 75.15978693 305.43834059 75.14969444 312.06215286 C75.1467613 314.49992732 75.14554571 316.9377045 75.14612198 319.37548065 C75.14660884 322.68732724 75.14099515 325.99910637 75.13371277 329.3109436 C75.13526137 330.28882831 75.13680997 331.26671302 75.1384055 332.2742306 C75.13356883 333.59421536 75.13356883 333.59421536 75.12863445 334.94086647 C75.12793003 335.70611566 75.1272256 336.47136485 75.12649983 337.25980341 C75 339 75 339 74 340 C49.58 340 25.16 340 0 340 C0 227.8 0 115.6 0 0 Z " fill="#1967D1" transform="translate(362,178)"/>
<path d="M0 0 C24.45436936 7.97132539 43.41039193 27.99341603 54.92578125 50.4284668 C66.72682633 74.67064669 68.35264288 102.97700993 60.17041016 128.59765625 C54.98123802 143.15546381 47.43192978 155.90818474 36.75 167.109375 C34.93886553 168.88945644 34.93886553 168.88945644 34 171 C31 171 31 171 29.52734375 169.7421875 C11.87437918 149.00971315 -0.43221456 124.73916906 -0.22705078 96.95068359 C-0.22734283 95.89583771 -0.22763489 94.84099182 -0.22793579 93.75418091 C-0.22655356 90.30217982 -0.21104475 86.85040041 -0.1953125 83.3984375 C-0.19157843 80.99134438 -0.18873332 78.58424973 -0.18673706 76.17715454 C-0.17913161 69.86761212 -0.15950979 63.558163 -0.1373291 57.24865723 C-0.11680395 50.7998989 -0.10772112 44.35112538 -0.09765625 37.90234375 C-0.07626087 25.26818955 -0.04255148 12.63409976 0 0 Z " fill="#E94334" transform="translate(229,320)"/>
</svg>
